<svg width="25" height="20" viewBox="0 0 25 20" fill="none" xmlns="http://www.w3.org/2000/svg">
<path d="M24.2556 3.01054C23.3581 3.4005 22.4086 3.65742 21.4369 3.77317C22.458 3.17522 23.226 2.22527 23.5967 1.10148C22.6312 1.66602 21.5767 2.06213 20.4784 2.27284C20.0159 1.78811 19.4596 1.4025 18.8434 1.13944C18.2272 0.876377 17.564 0.741362 16.894 0.7426C14.1815 0.7426 11.9863 2.90587 11.9863 5.57257C11.9844 5.9435 12.0269 6.31332 12.1129 6.67414C10.1678 6.58295 8.26315 6.08676 6.5208 5.2173C4.77845 4.34784 3.23677 3.12427 1.9944 1.62485C1.55854 2.35963 1.32804 3.19798 1.32698 4.0523C1.32698 5.72709 2.20076 7.20748 3.52015 8.07478C2.73845 8.05623 1.97276 7.84933 1.2881 7.47166V7.53147C1.2881 9.87418 2.98282 11.8231 5.22584 12.2667C4.80405 12.3792 4.36939 12.4361 3.93287 12.4362C3.62312 12.4367 3.31408 12.4067 3.01024 12.3465C3.6338 14.2655 5.44865 15.6612 7.59846 15.701C5.85158 17.0473 3.70688 17.775 1.50143 17.7696C1.10996 17.769 0.718851 17.7457 0.330078 17.6998C2.57369 19.1325 5.1817 19.8903 7.8437 19.883C16.8836 19.883 21.8222 12.5209 21.8222 6.13581C21.8222 5.92647 21.8167 5.71712 21.8067 5.51275C22.7653 4.83091 23.5946 3.98357 24.2556 3.01054Z" fill="#274C5B"/>
</svg>
